<svg id="レイヤー_1" data-name="レイヤー 1" xmlns="http://www.w3.org/2000/svg" viewBox="0 0 1959 598"><path d="M511.5028,253.7111q-1.72,3.5411-3.5015,7.0276c-6.0929,11.9272-11.8173,24.1235-19.7814,34.8545-14.0033,22.7331-32.0124,39.3076-58.2214,45.18-29.0986,6.5075-58.2992,8.6379-87.9168,4.3882-12.0114-1.7159-23.7055-5.0071-34.2516-11.888-11.1866-7.2881-21.327-21.0317-23.0082-35.0694.3649-.34.73-.67,1.0959-1.0007,3.66-3.3721,7.3221-6.7147,10.9731-10.0763,23.53,16.3927,52.3119,26.218,79.9049,25.4091,25.73-.7543,50.3741-8.9846,73.104-20.8064q13.0743-6.8,25.506-14.7749C487.4505,269.2059,498.1977,259.5157,511.5028,253.7111Z" fill="#e70"/><path d="M533.7649,336.6359l-116.917,12.6349a13.7285,13.7285,0,0,1-15.124-12.1741l-2.2535-38.963A13.7286,13.7286,0,0,1,411.6445,283.01L524.64,270.3062A13.7286,13.7286,0,0,1,539.7637,282.48l6.1752,39.0315A13.7285,13.7285,0,0,1,533.7649,336.6359Z" fill="#e51726"/><path d="M374.5648,274.3479c-5.3041,5.7406-11.4573,5.97-16.882.5439-7.4937-7.5046-14.9234-15.0768-22.4006-22.5959-1.284-1.3023-2.33-3.0391-4.394-.7268-13.6355,15.2707-27.3765,30.4289-41.0894,45.6228q-5.2074,5.3178-10.4239,10.6379c-.3486.3443-.6949.6986-1.041,1.0529-1.8279-6.2205-1.2978-12.61-1.5081-18.9327-.2037-5.8609-.2894-11.7282-.4224-17.5844,11.9184-13.0495,23.7992-26.1324,35.8067-39.0973,1.7364-1.8781,1.4945-2.8434-.2185-4.541q-11.2976-11.1806-22.384-22.61c-5.951-6.1151-5.9977-12.202-.2946-18.4566,5.741-6.3055,11.5765-6.62,17.4884-.6744q34.1284,34.3716,68.1336,68.8561C380.6687,261.66,380.4523,267.9873,374.5648,274.3479Z" fill="#e70"/><path d="M706.8967,288.5161c-3.2516-12.8578-4.564-16.0871-9.71-28.2041-13.9052-32.7554-33.1935-60.09-65.743-74.98-19.9492-9.13-39.7743-18.1392-61.532-20.777-11.216-1.3674-20.3331,2.3234-27.6438,11.0934-.7814.9433-1.6949,1.7787-2.5479,2.6639-14.47,20.6963-22.8743,44.8269-33.5633,67.6624-5.6787,12.1343-10.9671,24.521-18.5592,35.5225-13.197,23.2042-30.6159,40.3981-56.6043,47.1828-28.8538,7.5235-57.9581,10.6735-87.7137,7.4591-12.0639-1.3015-23.8668-4.18-34.6432-10.687-11.4322-6.8915-19.1232-16.66-21.2923-30.63-1.7172-6.252-1.0738-12.6311-1.1719-18.9565-.1-5.8635-.0812-11.7314-.11-17.5891-2.7933-8.9067-8.455-13.7591-17.4544-13.5446a52.1106,52.1106,0,0,0-12.1664,1.731c-19.8972,5.23-38.1993,14.4-56.13,24.3914-23.6831,13.1942-46.8908,27.3251-67.166,45.8643-11.4037,10.4273-17.3908,24.736-21.0119,39.4719-1.8252,7.4274-3.1291,14.9686-4.5026,22.4887-1.4395,7.8811-2.9115,15.4882-2.4245,23.5564.1153,1.909,1.2408,17.5172,2.719,17.79a3.3081,3.3081,0,0,1,2.3311,3.969c5.3767.9048,10.4279,3.0126,15.8024,3.9a70.3719,70.3719,0,0,0,17.7114.2528q9.1011-.8133,19.5-1.9985c.038-.0081.0779-.0062.1158-.0143.4067-.0449.8205-.102,1.2292-.137.0379-.0081.0685-.0042.1065-.0122q7.0923-.8244,14.7377-1.7984c4.0225-.5139,8.5319,2.6039,12.7776,2.0213.1822-.0285-.1917.0305,0,0,.8564-.1161,1.8284,2.9078,2.6939,2.79-7.9141,3.735-11.8923-.1658-11.4249,1.8586,2.2538,9.7624,109.315-6.6189,239.128-36.5885s233.22-62.1788,230.9662-71.9412a2.0541,2.0541,0,0,0-1.0654-1.236q6.684-2.1575,12.7532-4.2243c.0283-.006.0642-.0242.0926-.03.397-.1372.7845-.2726,1.1814-.41l.0379-.0082c.25-.0847.49-.1676.7394-.2524,21.2669-7.3276,26.5386-13.3449,33.825-18.2914C701.0882,297.838,706.9831,288.55,706.8967,288.5161Z" fill="#ffd919"/><path d="M479.8753,250.0167l-90.0248-6.3717a13.439,13.439,0,0,1-13.2024-13.6715l.57-32.6326a13.4391,13.4391,0,0,1,13.6715-13.2024l90.1923-3.226a13.4389,13.4389,0,0,1,13.2024,13.6714l-.7372,42.23A13.4388,13.4388,0,0,1,479.8753,250.0167Z" fill="#e51726"/><path d="M412.198,158.6073,344.0887,177.573a13.7287,13.7287,0,0,1-16.642-10l-9.4892-38.0592a13.7285,13.7285,0,0,1,10-16.642l68.4685-12.1109a13.7285,13.7285,0,0,1,16.6419,10l9.13,31.2044A13.7287,13.7287,0,0,1,412.198,158.6073Z" fill="#e51726"/><path d="M706.65,267.972a2.8715,2.8715,0,0,0-5.2051-.9141,82.6348,82.6348,0,0,1-14.0914,15.5731c-8.3078,7.4067-19.0427,15.0469-31.9185,22.76-10.4979,6.2475-22.3974,12.5909-35.5455,18.8995-11.6732,5.59-24.3263,11.1489-37.8361,16.6472q-17.1969,6.9756-36.1824,13.7522A1219.2215,1219.2215,0,0,1,408.17,394.2949c-42.952,9.778-84.3031,16.9917-122.3524,21.7006-13.7,1.684-26.9616,3.0772-39.7213,4.1008-12.7533,1.0546-25.0083,1.7721-36.6695,2.1314-17.9016.6129-35.9921.58-53.6187-2.9959-17.7839-3.6077-34.408-11.2705-50.1193-20.1764-3.6781-2.0849-6.5115,2.1-5.1409,5.3609,5.3075,12.628,10.334,26.1936,22.7723,33.501,15.3562,9.0216,35.0836,15.8,52.9379,16.5238,12.4822.5058,26.0391.5439,40.5007.0569,11.6265-.3516,23.8448-1.0609,36.56-2.1066,12.7213-1.0151,25.943-2.3994,39.6013-4.0741a1236.3333,1236.3333,0,0,0,121.9775-21.6165,1211.7361,1211.7361,0,0,0,137.27-39.5081q18.8949-6.7407,36.0671-13.7264c13.4664-5.4887,26.0788-11.038,37.7142-16.62,13.1055-6.2991,24.966-12.6337,35.4292-18.8733,12.833-7.7036,23.5314-15.3355,31.82-22.7379,7.093-6.3348,16.3679-14.4089,17.6882-24.5112.5723-4.3793-1.1511-9.0085-2.1042-13.2545Z" fill="#e70"/><ellipse cx="267.5382" cy="438.5701" rx="59.4117" ry="59.4323" fill="#e51726"/><ellipse cx="267.5382" cy="438.5701" rx="31.8277" ry="31.8388" fill="#fff"/><ellipse cx="569.5012" cy="359.3454" rx="71.093" ry="69.9646" transform="translate(-12.1941 20.0942) rotate(-2)" fill="#e51726"/><ellipse cx="569.5012" cy="359.3454" rx="39.4961" ry="38.8692" transform="translate(-12.1941 20.0942) rotate(-2)" fill="#fff"/><circle cx="183.3676" cy="316.2719" r="10.9681" transform="translate(-136.0564 494.0919) rotate(-89)" fill="#734d3a"/><ellipse cx="117.4764" cy="331.9697" rx="26.4764" ry="15.6897" fill="#734d3a"/><path d="M122.4189,382.0564a20.3152,20.3152,0,0,1-4.4659-.56c-4.57-1.1209-7.9238-3.89-9.2-7.5977a3.9225,3.9225,0,1,1,7.4175-2.5542c.391,1.137,1.7216,2.0595,3.6509,2.5328a16.2571,16.2571,0,0,0,8.8215-.684c4.1559-1.4312,7.51-4.14,8.546-6.902a3.9227,3.9227,0,0,1,7.3459,2.7544c-1.88,5.0137-6.8664,9.3372-13.3377,11.5651A25.788,25.788,0,0,1,122.4189,382.0564Z" fill="#734d3a"/><path d="M326.6981,377.299a194.4978,194.4978,0,0,1-51.12-38.4748,189.9254,189.9254,0,0,1-34.7723-51.1289,15.9407,15.9407,0,0,1,27.0018-16.5359l.2145.2787a151.5345,151.5345,0,0,0,36.5866,33.4988,143.0475,143.0475,0,0,0,43.5055,18.9537,29.0417,29.0417,0,1,1-20.2317,54.032Z" fill="#734d3a"/><path d="M922.2923,308.3554v49.4394c0,11.1371-3.0045,19.014-16.1081,25.5343-7.6425,3.8032-30.0295,10.594-56.5089,10.594-55.6911,0-98.55-38.3023-98.55-95.6169,0-55.9579,44.2247-94.5308,102.3727-94.5308,18.8369,0,35.7608,4.0738,43.9509,7.3339,11.4664,4.6187,17.2,11.1371,17.2,21.1881,0,9.5079-7.37,17.6573-16.1063,17.6573-6.2789,0-10.9206-2.174-16.6538-4.348a88.9135,88.9135,0,0,0-28.39-4.8893c-36.8542,0-58.6937,24.7206-58.6937,57.5888,0,36.6714,25.1158,58.6731,56.2368,58.6731,13.3757,0,24.8421-1.9016,37.672-7.877V323.8387H865.2358c-10.1011,0-18.0173-7.3339-18.0173-17.3849,0-10.0492,7.9162-17.6555,18.0173-17.6555h38.22C914.1022,288.7983,922.2923,296.9477,922.2923,308.3554Z" fill="#e51726"/><path d="M1322.7622,372.4626a20.3415,20.3415,0,0,1-20.4741,20.102c-6.0052,0-12.83-2.4447-16.38-7.6064l-50.5036-72.2566-22.6572,23.09v35.8577a21.0387,21.0387,0,0,1-21.2937,20.9157,20.5762,20.5762,0,0,1-20.748-20.9157V225.7771a20.5151,20.5151,0,0,1,20.748-20.6432c11.7383,0,21.2937,9.2355,21.2937,20.6432v57.5888l67.7014-71.4411a20.9079,20.9079,0,0,1,15.2885-6.7909,19.1777,19.1777,0,0,1,19.3809,19.0141c0,5.1617-1.9093,10.051-8.1882,16.2988L1263.7966,284.18l54.052,74.9737C1320.5792,362.9565,1322.7622,367.5733,1322.7622,372.4626Z" fill="#e51726"/><path d="M1517.9467,373.0057c0,10.8664-8.1882,19.5589-18.8351,19.5589-9.8291,0-16.1081-5.1617-19.1107-13.0387l-9.2815-23.6327h-78.3483l-9.2834,23.9033a19.74,19.74,0,0,1-18.2893,12.7681c-11.7384,0-19.3826-8.9649-19.3826-19.2865a28.192,28.192,0,0,1,2.4568-10.8665l56.5088-136.9051c6.007-14.67,17.2-20.3726,28.1185-20.3726,10.9206,0,21.8394,5.9754,27.5726,20.3726L1515.49,362.6841C1517.1289,367.03,1517.9467,370.018,1517.9467,373.0057ZM1457.07,321.6665l-25.1159-63.8348h-1.0915l-25.1159,63.8348Z" fill="#e51726"/><path d="M1685.2883,372.192a20.1667,20.1667,0,0,1-20.2022,20.3726c-6.279,0-12.2841-2.4447-18.0173-9.508L1600.661,325.74h-15.5605v45.9086a20.8694,20.8694,0,0,1-21.2937,20.9157,20.5762,20.5762,0,0,1-20.7479-20.9157V226.5926a20.518,20.518,0,0,1,20.4741-20.1h44.7705c45.318,0,67.7033,27.7065,67.7033,58.6731,0,24.4482-13.3775,42.3761-32.2144,52.1546l35.2169,39.6591C1682.2857,360.7825,1685.2883,365.1287,1685.2883,372.192Zm-100.1878-81.2215h19.6546c16.9259,0,27.8447-7.877,27.8447-23.36,0-16.0264-10.9188-24.1757-27.8447-24.1757h-19.6546Z" fill="#e51726"/><path d="M1859.1827,224.9635c0,10.594-7.9163,18.471-18.0174,18.471H1800.217V371.6489a21.0211,21.0211,0,0,1-42.0416,0V243.4345H1717.499c-10.3731,0-18.2911-7.877-18.2911-18.471s7.918-18.471,18.2911-18.471h123.6663C1851.2664,206.4925,1859.1827,214.3694,1859.1827,224.9635Z" fill="#e51726"/><ellipse cx="1043.4762" cy="299" rx="99.9961" ry="99.5" fill="#e51726"/><ellipse cx="1043.4762" cy="299" rx="52.3344" ry="52.0748" fill="#fff"/><rect x="127.0913" y="100.0776" width="35" height="398" fill="none"/><rect width="1959" height="598" fill="none"/></svg>